<svg xmlns:rdf="http://www.w3.org/1999/02/22-rdf-syntax-ns#" xmlns="http://www.w3.org/2000/svg" xmlns:cc="http://creativecommons.org/ns#" xmlns:dc="http://purl.org/dc/elements/1.1/" version="1.1" viewBox="0 0 100 100" x="0px" y="0px"><path style="baseline-shift:baseline;block-progression:tb;color:#000000;direction:ltr;text-indent:0;enable-background:accumulate;text-transform:none;" fill="#000" d="M29.125,14.875c-2.477,0-4.482,0.141-5.969,0.437-1.486,0.298-2.741,0.808-3.781,1.5-1.362,0.868-2.318,2.076-2.875,3.626-0.557,1.548-0.844,4.208-0.844,8v9.062c0,3.79-0.669,6.445-2.031,7.969-1.362,1.523-3.712,2.281-7.0312,2.281-0.1736,0-0.441-0.006-0.8126-0.031-0.3714-0.025-0.6768-0.031-0.875-0.031v4.718c0.1982,0,0.5036-0.006,0.875-0.031,0.3716-0.025,0.639-0.061,0.8126-0.063,3.3192,0.002,5.6692,0.771,7.0312,2.282s2.031,4.141,2.031,7.906v9.062c0,3.692,0.287,6.353,0.844,7.938s1.513,2.796,2.875,3.688c1.04,0.692,2.315,1.202,3.813,1.5,1.498,0.296,3.484,0.437,5.937,0.437h1.281v-4.625h-1.406c-3.122,0-5.266-0.598-6.344-1.75-1.077-1.152-1.625-3.559-1.625-7.25v-9c0-4.112-0.515-7.028-1.593-8.75s-3-2.944-5.75-3.688c2.75-0.766,4.672-2.028,5.75-3.75,1.078-1.72,1.593-4.636,1.593-8.75v-8.968c0-3.716,0.56-6.18,1.625-7.344s3.097-1.75,6.094-1.75c0.173,0,0.472,0.038,0.844,0.062,0.371,0.026,0.614,0.032,0.812,0.032v-4.719h-1.281zm40.375,0v4.625h1.5c3.096,0,5.16,0.605,6.25,1.781,1.09,1.177,1.625,3.622,1.625,7.313v8.968c0,4.114,0.547,7.03,1.625,8.75,1.078,1.722,3,2.984,5.75,3.75-2.75,0.744-4.672,1.966-5.75,3.688s-1.625,4.638-1.625,8.75v8.906c0,3.741-0.547,6.23-1.625,7.406-1.078,1.178-3.09,1.75-6.062,1.75-0.174,0-0.441-0.006-0.813-0.031s-0.677-0.031-0.875-0.031v4.625h1.531c2.527,0,4.52-0.121,5.969-0.406s2.659-0.761,3.625-1.407c1.338-0.89,2.267-2.114,2.813-3.687,0.544-1.573,0.812-4.271,0.812-8.063v-9c0-3.764,0.719-6.401,2.094-7.937,1.374-1.536,3.718-2.311,7.062-2.313,0.174,0.002,0.472,0.038,0.844,0.063,0.371,0.025,0.645,0.031,0.844,0.031v-4.718c-0.199,0-0.473,0.006-0.844,0.031-0.372,0.025-0.67,0.031-0.844,0.031-3.344,0-5.688-0.778-7.062-2.312-1.375-1.536-2.094-4.173-2.094-7.938v-9.062c0-3.766-0.268-6.44-0.812-8-0.546-1.562-1.475-2.758-2.813-3.626-1.04-0.668-2.333-1.159-3.844-1.468-1.511-0.31-3.46-0.469-5.937-0.469h-1.344zm-40.531,22.281c-1.78,0-3.25,1.471-3.25,3.25,0,1.78,1.47,3.219,3.25,3.219,0.233,0,0.468-0.015,0.687-0.063l10.063,12.75c-0.189,0.411-0.281,0.866-0.281,1.344,0,1.78,1.47,3.219,3.25,3.219,1.779,0,3.25-1.439,3.25-3.219,0-0.455-0.11-0.887-0.282-1.281,0.029-0.024,0.019-0.035,0.063-0.063,0.242-0.151,0.665-0.374,1.156-0.656,0.982-0.563,2.344-1.336,3.719-2.094,2.45-1.35,4.428-2.409,4.937-2.687,0.588,0.588,1.392,0.937,2.281,0.937,0.775,0,1.472-0.291,2.032-0.75,0.253,0.228,0.511,0.452,0.875,0.75,0.965,0.792,2.26,1.792,3.593,2.813,2.623,2.008,5.224,3.934,5.313,4-0.098,0.308-0.156,0.63-0.156,0.969,0,1.779,1.47,3.25,3.25,3.25,1.779,0,3.25-1.471,3.25-3.25,0-1.78-1.471-3.25-3.25-3.25-0.692,0-1.347,0.219-1.875,0.594-0.123-0.09-2.662-1.957-5.25-3.938-1.325-1.014-2.633-2.051-3.563-2.812-0.464-0.381-0.852-0.677-1.062-0.876-0.021-0.019-0.014-0.013-0.031-0.031,0.052-0.23,0.124-0.473,0.124-0.719,0-1.779-1.47-3.218-3.25-3.218-1.779,0-3.25,1.439-3.25,3.218,0,0.159,0.01,0.317,0.032,0.469-0.485,0.262-2.521,1.353-5,2.719-1.38,0.76-2.747,1.55-3.75,2.125-0.502,0.288-0.93,0.507-1.219,0.687-0.145,0.091-0.228,0.163-0.344,0.25-0.011,0.009-0.019,0.025-0.031,0.032-0.468-0.263-0.992-0.438-1.562-0.438-0.547,0-1.047,0.164-1.5,0.406l-9.75-12.343c0.476-0.565,0.781-1.272,0.781-2.063,0-1.779-1.471-3.25-3.25-3.25zm0,1.719c0.845,0,1.531,0.686,1.531,1.531,0,0.846-0.686,1.5-1.531,1.5-0.846,0-1.5-0.654-1.5-1.5,0-0.845,0.654-1.531,1.5-1.531zm28.843,8.187c0.846,0,1.5,0.655,1.5,1.5,0,0.846-0.654,1.532-1.5,1.532-0.845,0-1.531-0.686-1.531-1.532,0-0.845,0.686-1.5,1.531-1.5zm3.094,2.313c0.009,0.028,0.022,0.025,0.032,0.063,0.002,0.007-0.028-0.006-0.032,0,0.005-0.019-0.005-0.044,0-0.063zm-18.218,6.75c0.845,0,1.5,0.686,1.5,1.531,0,0.846-0.655,1.5-1.5,1.5-0.846,0-1.5-0.654-1.5-1.5,0-0.845,0.654-1.531,1.5-1.531zm2.906,0.187c0.005,0.003,0.064-0.002,0.062,0-0.031,0.042-0.013,0.009-0.031,0.032-0.006-0.013-0.025-0.019-0.031-0.032zm27.125,1.782c0.845,0,1.5,0.654,1.5,1.5,0,0.845-0.655,1.5-1.5,1.5-0.846,0-1.531-0.655-1.531-1.5,0-0.846,0.685-1.5,1.531-1.5z"></path></svg>